<svg height="512pt" viewBox="0 0 512 512" width="512pt" xmlns="http://www.w3.org/2000/svg"><path d="m266 50c0 5.523438-4.476562 10-10 10s-10-4.476562-10-10 4.476562-10 10-10 10 4.476562 10 10zm0 0"/><path d="m482 0h-452c-16.542969 0-30 13.457031-30 30v452c0 16.542969 13.457031 30 30 30h452c16.542969 0 30-13.457031 30-30v-452c0-16.542969-13.457031-30-30-30zm10 482c0 5.515625-4.484375 10-10 10h-216v-402c0-5.523438-4.476562-10-10-10s-10 4.476562-10 10v402h-216c-5.515625 0-10-4.484375-10-10v-452c0-5.515625 4.484375-10 10-10h452c5.515625 0 10 4.484375 10 10zm0 0"/><path d="m379 160c27.570312 0 50-22.429688 50-50s-22.429688-50-50-50-50 22.429688-50 50 22.429688 50 50 50zm0-80c16.542969 0 30 13.457031 30 30s-13.457031 30-30 30-30-13.457031-30-30 13.457031-30 30-30zm0 0"/><path d="m133 160c27.570312 0 50-22.429688 50-50s-22.429688-50-50-50-50 22.429688-50 50 22.429688 50 50 50zm0-80c16.542969 0 30 13.457031 30 30s-13.457031 30-30 30-30-13.457031-30-30 13.457031-30 30-30zm0 0"/><path d="m409 180h-60c-27.570312 0-50 22.429688-50 50v86c0 5.523438 4.476562 10 10 10h30v116c0 5.523438 4.476562 10 10 10h60c5.523438 0 10-4.476562 10-10v-116h30c5.523438 0 10-4.476562 10-10v-86c0-27.570312-22.429688-50-50-50zm30 126h-20v-56c0-5.523438-4.476562-10-10-10s-10 4.476562-10 10v182h-40v-182c0-5.523438-4.476562-10-10-10s-10 4.476562-10 10v56h-20v-76c0-16.542969 13.457031-30 30-30h60c16.542969 0 30 13.457031 30 30zm0 0"/><path d="m180.890625 216.234375c-.011719-.046875-.023437-.089844-.035156-.132813-6.050781-21.179687-25.390625-36.101562-47.855469-36.101562-22.101562 0-41.78125 14.847656-47.855469 36.101562-.011719.042969-31.796875 117.28125-31.796875 117.28125-.8125 3.007813-.183594 6.21875 1.710938 8.691407 1.890625 2.476562 4.828125 3.925781 7.941406 3.925781h30v96c0 5.523438 4.476562 10 10 10h60c5.523438 0 10-4.476562 10-10v-96h30c3.113281 0 6.050781-1.449219 7.941406-3.925781 1.894532-2.472657 2.523438-5.6875 1.710938-8.691407zm-17.890625 109.765625c-5.523438 0-10 4.476562-10 10v96h-40v-96c0-5.523438-4.476562-10-10-10h-26.929688l28.324219-104.464844c3.652344-12.683594 15.40625-21.535156 28.605469-21.535156 13.519531 0 25 9.003906 28.609375 21.535156l28.320313 104.464844zm0 0"/></svg>