<svg height="480pt" viewBox="-88 0 480 480" width="480pt" xmlns="http://www.w3.org/2000/svg"><path d="m104 192h16c0-70.558594 46.089844-72 48.046875-72l-.046875-16c-.640625 0-64 1.007812-64 88zm0 0"/><path d="m104 208h16v16h-16zm0 0"/><path d="m280 0h-224c-13.253906 0-24 10.746094-24 24v56h-32v64h32v112h24v80c.027344 26.5 21.5 47.972656 48 48h8v88c0 4.417969 3.582031 8 8 8h96c4.417969 0 8-3.582031 8-8v-88h8c26.5-.027344 47.972656-21.5 48-48v-80h24v-232c0-13.253906-10.746094-24-24-24zm-248 128h-16v-32h16zm176 336h-80v-80h80zm56-128c0 17.671875-14.328125 32-32 32h-128c-17.671875 0-32-14.328125-32-32v-48h192zm0-64h-192v-16h192zm-176-32v-72c0-44.183594 35.816406-80 80-80s80 35.816406 80 80v72zm200 0h-24v-72c0-53.019531-42.980469-96-96-96s-96 42.980469-96 96v72h-24v-176h240zm0-192h-240v-24c0-4.417969 3.582031-8 8-8h224c4.417969 0 8 3.582031 8 8zm0 0"/></svg>